<?xml version="1.0" encoding="utf-8"?>
<svg version="1.1" xmlns:xlink="http://www.w3.org/1999/xlink" width="16px" height="14px" xmlns="http://www.w3.org/2000/svg">
  <g transform="matrix(1 0 0 1 -349 -8 )">
    <path d="M 13.7001239157373 7.99844115354638  C 13.7067327550599 8.01299038711354  13.7100371747212 8.03481423746428  13.7100371747212 8.0639127045986  L 13.7100371747212 13.3016367887763  C 13.7100371747212 13.4907768251494  13.6472532011565 13.6544557027799  13.5216852540273 13.792673421668  C 13.396117306898 13.930891140556  13.2474184221396 14  13.0755885997522 14  L 9.26889714993804 14  L 9.26889714993804 9.80982073265783  L 6.73110285006196 9.80982073265783  L 6.73110285006196 14  L 2.92441140024783 14  C 2.75258157786039 14  2.60388269310202 13.930891140556  2.47831474597274 13.792673421668  C 2.35274679884345 13.6544557027799  2.28996282527881 13.4907768251494  2.28996282527881 13.3016367887763  L 2.28996282527881 8.0639127045986  C 2.28996282527881 8.05663808781502  2.29161503510946 8.04572616263965  2.29491945477076 8.03117692907249  C 2.29822387443205 8.01662769550533  2.2998760842627 8.00571577032996  2.2998760842627 7.99844115354638  L 8 2.82618862042089  L 13.7001239157373 7.99844115354638  Z M 15.9900867410161 7.05455962587685  C 15.9966955803387 7.15276695245518  15.9735646427096 7.23824369966225  15.9206939281289 7.31098986749805  L 15.3060718711276 8.11847233047545  C 15.2532011565469 8.18394388152767  15.1838083436596 8.22395427383736  15.0978934324659 8.23850350740452  L 15.0681536555142 8.23850350740452  C 14.9822387443205 8.23850350740452  14.9128459314333 8.21304234866199  14.8599752168525 8.16212003117693  L 8 1.86593920498831  L 1.14002478314746 8.16212003117693  C 1.06071871127633 8.22031696544557  0.981412639405205 8.2457781241881  0.902106567534077 8.23850350740452  C 0.816191656340355 8.22395427383736  0.746798843453119 8.18394388152767  0.693928128872367 8.11847233047545  L 0.0793060718711276 7.31098986749805  C 0.0264353572903759 7.23824369966225  0.00330441966129701 7.15276695245518  0.00991325898389095 7.05455962587685  C 0.016522098306485 6.95635229929852  0.0528707145807518 6.87815016887503  0.118959107806691 6.81995323460639  L 7.24659231722429 0.283710054559626  C 7.45807517554729 0.0945700181865405  7.70921106980587 0  8 0  C 8.29078893019414 0  8.54192482445271 0.0945700181865405  8.75340768277571 0.283710054559626  L 11.1722428748451 2.50974279033515  L 11.1722428748451 0.381917381137957  C 11.1722428748451 0.280072746167834  11.2019826517968 0.196414653156664  11.2614622057001 0.130943102104443  C 11.3209417596035 0.0654715510522217  11.3969434118133 0.0327357755261108  11.4894671623296 0.0327357755261108  L 13.3928128872367 0.0327357755261108  C 13.485336637753 0.0327357755261108  13.5613382899628 0.0654715510522217  13.6208178438662 0.130943102104443  C 13.6802973977695 0.196414653156664  13.7100371747212 0.280072746167834  13.7100371747212 0.381917381137957  L 13.7100371747212 4.83398285268901  L 15.8810408921933 6.81995323460639  C 15.9471292854192 6.87815016887503  15.9834779016935 6.95635229929852  15.9900867410161 7.05455962587685  Z " fill-rule="nonzero" fill="#000000" stroke="none" transform="matrix(1 0 0 1 349 8 )" />
  </g>
</svg>